<svg xmlns="http://www.w3.org/2000/svg" viewBox="0 0 26 32" shape-rendering="crispEdges"><path fill="#ffe9f1" d="M9 0h7v31H9M5 1h4v25H5M16 1h5v25h-5M4 2h1v23H4M3 3h1v21H3M21 2h1v6h-1m1-5h1v2h-1m-1 7h3v10h-3"/><path fill="#f5a6c4" d="M9 1h7v30H9M5 2h4v24H5M4 3h1v9H4M16 2h5v6h-5m5-5h1v2h-1"/><path fill="#f6fff0" d="M2 2h1v20H2M1 3h1v4H1M1 8h1v10H1M24 8h1v10h-1M0 9h1v2H0M3 9h6v3H3M23 9h1v13h-1M25 9h1v2h-1m-3-1h1v14h-1M3 12h1v12H3m1 0h18v1H4m1 0h16v1H5m1 0h14v1H6m2 0h10v3H8m1 0h8v1H9m1 0h6v1h-6"/><path fill="#596e41" d="M2 3h1v4H2M3 4h1v5H3M4 5h1v6H4M24 9h1v2h-1M1 9h1v2H1m1-1h1v8H2m3-7h5v14H5M23 10h1v8h-1m-1-4h1v8h-1m-9-7h8v10h-8m-1-9h1v15h-1M3 19h2v3H3m7-1h1v10h-1m1-12h1v12h-1M4 22h1v2H4m5 3h1v3H9"/><path fill="#f5629b" d="M11 2h3v11h-3M10 3h1v8h-1m4-8h1v15h-1M9 8h1v1H9m6-5h2v16h-2M6 9h3v15H6M9 11h1v12H9M5 12h1v11H5M4 14h1v7H4m6-8h1v8h-1"/><path fill="#f580ad" d="M5 3h3v2H5M8 4h1v4H8m9-5h2v1h-2m1 0h2v2h-2M6 5h2v2H6M16 6h1v16h-1M19 6h1v1h-1M15 7h1v13h-1M13 9h1v6h-1m1-7h1v10h-1m-2-6h1v4h-1"/><path fill="#ce145b" d="M16 7h2v15h-2M15 8h1v12h-1M18 8h2v18h-2M14 9h1v9h-1m-1-6h1v3h-1m7-3h1v13h-1m1-11h1v10h-1"/><path fill="#465323" d="M3 5h1v2H3M4 7h1v2H4m19 7h1v2h-1M5 8h1v3H5m7 8h1v11h-1m1-12h1v13h-1m1-12h2v1h-2m8 0h1v2h-1m-8-1h1v10h-1m2-10h1v1h-1m-5 0h1v1h-1m4-1h1v9h-1m6-9h1v2h-1m-1-1h1v2h-1M4 23h1v1H4m1 0h3v1H5m6-1h1v5h-1m5-5h1v6h-1m2-6h2v2h-2m-1-1h1v2h-1M6 25h5v1H6m2 0h3v1H8m2 0h1v2h-1"/><path fill="#799864" d="M23 12h1v2h-1M2 13h1v1H2m11-1h1v2h-1M3 14h1v5H3m8-4h1v4h-1m1-5h1v2h-1m2-1h1v3h-1m8-3h1v1h-1M10 18h1v3h-1m5-3h1v2h-1M9 20h1v3H9m7-3h1v1h-1"/><path fill="#513a22" d="M4 18h1v3H4m1 0h1v2H5m1-1h2v2H6m15-3h1v1h-1m-4 0h1v2h-1m3-2h1v1h-1M8 23h1v1H8m10-1h2v1h-2"/></svg>