<svg xmlns="http://www.w3.org/2000/svg" viewBox="0 -0.5 32 32" shape-rendering="crispEdges"><path stroke="#ffe9f1" d="M12 0h7M8 1h4m7 0h5M7 2h1m16 0h1M6 3h1m18 0h1m-1 1h1m-2 1h1m-1 1h1m-1 1h1m-2 1h1m-1 1h1m-1 1h1m-1 1h1M7 12h1m16 0h1M7 13h1m16 0h1"/><path stroke="#f5a6c4" d="M12 1h7M8 2h6m3 0h7M7 3h1m3 0h2m5 0h2m2 0h3M7 4h1m4 0h1m7 0h1m2 0h2M8 5h1m3 0h1m7 0h1m2 0h1M8 6h1m3 0h1m7 0h2m1 0h1M8 7h3m1 0h1m8 0h3M9 8h3m0 1h1m-1 1h1m0 1h1m-1 1h1m0 1h1m-1 1h1"/><path stroke="#f6fff0" d="M5 2h1M4 3h1M4 4h1M4 5h1M4 6h1m0 1h1M4 8h2m21 0h1M3 9h1m1 0h2m19 0h1m1 0h1M3 10h1m2 0h1m18 0h1m2 0h1M4 11h1m1 0h2m17 0h1m1 0h1M4 12h1m1 0h1m18 0h1m1 0h1M4 13h1m1 0h1m18 0h1m1 0h1M4 14h1m22 0h1M4 15h1m22 0h1M4 16h1m22 0h1M4 17h1m22 0h1M5 18h1m20 0h1M5 19h1m20 0h1M5 20h1m20 0h1M5 21h1m20 0h1M6 22h1m18 0h1M6 23h1m18 0h1M7 24h1m16 0h1M8 25h1m14 0h1M9 26h2m10 0h2m-12 1h1m8 0h1m-10 1h1m8 0h1m-10 1h1m8 0h1m-9 1h1m6 0h1m-7 1h6"/><path stroke="#f5629b" d="M14 2h3m-4 1h5m-5 1h7m-7 1h7m-7 1h6m-6 1h5m-6 1h5M9 9h3m1 0h3m-7 1h3m1 0h3m-7 1h4m1 0h2m-8 1h5m1 0h1m-7 1h6m-7 1h7m-7 1h7m-7 1h7m-7 1h7m-6 1h5m-5 1h5m-5 1h4m-3 1h3m-1 1h1"/><path stroke="#596e41" d="M5 3h1M5 4h2M5 5h1m1 0h1M5 6h1m1 0h1M6 7h1M6 8h1M4 9h1m2 0h1m19 0h1M4 10h2m1 0h1m18 0h2M5 11h1m2 0h1m17 0h1M5 12h1m-1 2h1m19 0h2M5 15h1m10 0h1m9 0h1M5 16h1m9 0h2m8 0h1M5 17h1m9 0h2m8 0h1m-11 1h1m1 0h1m7 0h1M6 19h1m7 0h1m10 0h1M6 20h1m7 0h1m2 0h2M6 21h2m5 0h2m3 0h1M7 22h1m5 0h1m5 0h1M8 23h1m3 0h3m4 0h1m-9 1h3m6 0h1m-9 3h1m-1 1h1m-1 1h3m-2 1h3"/><path stroke="#f580ad" d="M8 3h3m9 0h2M8 4h4m9 0h2M9 5h3m9 0h2M9 6h3m7 0h1m2 0h1M11 7h1m6 0h1m-2 1h1m-2 1h1m-1 1h1m-1 1h1m-2 1h1m-1 1h1"/><path stroke="#465323" d="M6 5h1M6 6h1m0 1h1M7 8h2M8 9h1m-1 1h1m17 6h1m-1 1h1m-11 1h1m-2 1h3m-3 1h2m8 0h1m-11 1h3m1 0h1m5 0h1m-12 1h5m5 0h1M7 23h1m7 0h4m4 0h2M8 24h3m3 0h6m1 0h3M9 25h14m-12 1h10m-8 1h7m-7 1h7m-5 1h5m-4 1h3"/><path stroke="#ce145b" d="M19 7h2m-3 1h5m-6 1h6m-6 1h6m-6 1h6m-7 1h8m-7 1h7m-7 1h8m-7 1h7m-7 1h7m-7 1h7m-6 1h6m-6 1h6m-5 1h5m-5 1h4m-3 1h2"/><path stroke="#799864" d="M26 12h1M5 13h1m10 0h1m9 0h1M6 14h1m8 0h2M6 15h1m7 0h2m1 0h1m7 0h1M6 16h1m7 0h1m2 0h1M6 17h1m7 0h1m2 0h1M6 18h1m6 0h2m3 0h1m-6 1h1m4 0h1m-7 1h2m5 0h1m-8 1h1m-1 1h1"/><path stroke="#513a22" d="M7 18h1m-1 1h1m-1 1h1m0 1h1m15 0h1M8 22h3m9 0h1m2 0h1M9 23h3m8 0h3"/></svg>